<svg width="37" height="37" viewBox="0 0 37 37" fill="none" xmlns="http://www.w3.org/2000/svg">
<path d="M13.875 6.9375H9.25V2.3125H6.9375V6.9375H2.3125V9.25H6.9375V13.875H9.25V9.25H13.875V6.9375Z" fill="#02A6EB"/>
<path d="M34.5938 19.2007L31.1251 11.1069C31.0361 10.8989 30.8879 10.7216 30.699 10.597C30.5101 10.4725 30.2888 10.4061 30.0625 10.4062H26.5938V8.09375C26.5938 7.78709 26.4719 7.493 26.2551 7.27616C26.0383 7.05932 25.7442 6.9375 25.4375 6.9375H17.3438V9.25H24.2812V23.7679C23.7544 24.0738 23.2933 24.481 22.9246 24.966C22.5559 25.451 22.2868 26.0042 22.1329 26.5938H14.8671C14.6155 25.6014 14.0403 24.7213 13.2324 24.0926C12.4245 23.4639 11.43 23.1225 10.4062 23.1225C9.38253 23.1225 8.38804 23.4639 7.58012 24.0926C6.77219 24.7213 6.19696 25.6014 5.94544 26.5938H4.625V16.1875H2.3125V27.75C2.3125 28.0567 2.43432 28.3508 2.65116 28.5676C2.868 28.7844 3.16209 28.9062 3.46875 28.9062H5.94544C6.19696 29.8986 6.77219 30.7787 7.58012 31.4074C8.38804 32.0361 9.38253 32.3775 10.4062 32.3775C11.43 32.3775 12.4245 32.0361 13.2324 31.4074C14.0403 30.7787 14.6155 29.8986 14.8671 28.9062H22.1329C22.3845 29.8986 22.9597 30.7787 23.7676 31.4074C24.5755 32.0361 25.57 32.3775 26.5938 32.3775C27.6175 32.3775 28.612 32.0361 29.4199 31.4074C30.2278 30.7787 30.803 29.8986 31.0546 28.9062H33.5312C33.8379 28.9062 34.132 28.7844 34.3488 28.5676C34.5657 28.3508 34.6875 28.0567 34.6875 27.75V19.6562C34.6876 19.4996 34.6557 19.3446 34.5938 19.2007ZM10.4062 30.0625C9.94888 30.0625 9.50178 29.9269 9.12149 29.6728C8.74121 29.4187 8.44481 29.0575 8.26978 28.635C8.09475 28.2124 8.04896 27.7474 8.13818 27.2989C8.22741 26.8503 8.44766 26.4382 8.77107 26.1148C9.09447 25.7914 9.50652 25.5712 9.9551 25.4819C10.4037 25.3927 10.8687 25.4385 11.2912 25.6135C11.7138 25.7886 12.0749 26.085 12.329 26.4652C12.5831 26.8455 12.7188 27.2926 12.7188 27.75C12.7178 28.363 12.4739 28.9507 12.0404 29.3842C11.6069 29.8177 11.0193 30.0616 10.4062 30.0625ZM26.5938 12.7188H29.2994L31.7784 18.5H26.5938V12.7188ZM26.5938 30.0625C26.1364 30.0625 25.6893 29.9269 25.309 29.6728C24.9287 29.4187 24.6323 29.0575 24.4573 28.635C24.2823 28.2124 24.2365 27.7474 24.3257 27.2989C24.4149 26.8503 24.6352 26.4382 24.9586 26.1148C25.282 25.7914 25.694 25.5712 26.1426 25.4819C26.5912 25.3927 27.0562 25.4385 27.4787 25.6135C27.9013 25.7886 28.2624 26.085 28.5165 26.4652C28.7706 26.8455 28.9062 27.2926 28.9062 27.75C28.9056 28.3631 28.6618 28.951 28.2283 29.3845C27.7947 29.8181 27.2069 30.0619 26.5938 30.0625ZM32.375 26.5938H31.0546C30.7999 25.6033 30.2237 24.7255 29.4164 24.0977C28.6091 23.47 27.6164 23.1278 26.5938 23.125V20.8125H32.375V26.5938Z" fill="#1E1E1E"/>
</svg>
