<svg width="41" height="41" viewBox="0 0 41 41" fill="none" xmlns="http://www.w3.org/2000/svg">
<path d="M6.85257 8.0088C3.72527 11.4163 1.9932 15.8749 2.00002 20.5C2.00002 30.7175 10.2825 39 20.5 39C25.0076 39.0068 29.3614 37.3613 32.7378 34.375M37.7087 27.3043C38.5647 25.138 39.0029 22.8293 39 20.5C39 10.2824 30.7176 2 20.5 2C18.2227 2 16.0415 2.41255 14.025 3.1655" stroke="black" stroke-width="3" stroke-linecap="round" stroke-linejoin="round"/>
<path d="M14.9501 26.05C16.1415 27.641 18.3596 28.5475 20.5001 28.6233C22.561 28.6973 24.5516 28.0017 25.4895 26.407M20.5001 28.6233V32.525M15.8751 15.875C15.8751 18.0598 17.4513 18.9552 19.3642 19.575M26.0501 14.025C24.7828 12.7577 22.5517 11.8771 20.5001 11.8216V8.47497M3.8501 3.84998L37.1501 37.15" stroke="#02A6EB" stroke-width="3" stroke-linecap="round" stroke-linejoin="round"/>
</svg>
