<svg width="37" height="37" viewBox="0 0 37 37" fill="none" xmlns="http://www.w3.org/2000/svg">
<path d="M9.97223 0.768375L9.44599 7.43845C9.41968 7.76735 9.6828 8.05679 10.0117 8.05679L16.7081 8.01732C17.2212 8.00416 17.4843 7.41214 17.1422 7.04378L15.5767 5.35981C15.5394 5.3232 15.5104 5.27914 15.4913 5.23052C15.4723 5.1819 15.4638 5.1298 15.4662 5.07765C15.4687 5.02549 15.4822 4.97445 15.5057 4.92786C15.5293 4.88126 15.5624 4.84017 15.603 4.80726C16.5239 4.08368 17.7211 3.64953 18.9841 3.70216C21.3521 3.79425 23.2861 5.62293 23.7729 7.83313C23.7992 7.95154 23.9044 8.04363 24.036 8.04363H27.2329C27.4039 8.04363 27.5355 7.88576 27.5091 7.72789C26.9303 3.5706 23.4571 0.1632 19.1156 0.00532793C16.8133 -0.0736079 14.6689 0.728907 13.0507 2.12344C12.8929 2.255 12.6692 2.24184 12.5245 2.09713L10.9721 0.426319C10.8961 0.344031 10.7979 0.28559 10.6894 0.25811C10.5808 0.23063 10.4666 0.235296 10.3607 0.27154C10.2548 0.307784 10.1616 0.374043 10.0927 0.462252C10.0237 0.550461 9.98185 0.656817 9.97223 0.768375ZM26.7487 36.2316L27.275 29.5615C27.28 29.4835 27.2691 29.4052 27.2431 29.3314C27.2171 29.2575 27.1765 29.1897 27.1237 29.132C27.0709 29.0743 27.0069 29.0278 26.9357 28.9954C26.8645 28.9629 26.7875 28.9452 26.7093 28.9432L20.0129 28.9827C19.4998 28.9958 19.2367 29.5879 19.5787 29.9562L21.1443 31.6402C21.3022 31.7981 21.289 32.0612 21.118 32.1927C20.1971 32.9163 18.9999 33.3505 17.7369 33.2978C15.3688 33.2057 13.4349 31.3771 12.9481 29.1669C12.9349 29.107 12.9016 29.0535 12.8537 29.0152C12.8058 28.9769 12.7463 28.9561 12.685 28.9564H9.48809C9.33022 28.9564 9.1855 29.1011 9.21181 29.2721C9.79068 33.4294 13.2639 36.8368 17.6053 36.9947C19.9076 37.0736 22.052 36.2711 23.6702 34.8766C23.8281 34.745 24.0518 34.7582 24.1965 34.9029L25.7489 36.5737C26.0909 36.942 26.7093 36.7316 26.7487 36.2316ZM5.26239 7.89365C4.91347 7.89365 4.57885 8.03226 4.33212 8.27898C4.0854 8.5257 3.94679 8.86033 3.94679 9.20925V10.6038C2.35755 10.8406 1.30244 11.5839 0.681479 12.5719C-1.56831e-07 13.6599 0 14.815 0 15.161V15.1702C0 15.5189 0.00263116 16.6568 0.718316 17.7172C1.04722 18.204 1.48663 18.6224 2.0497 18.9434C2.82459 19.3854 3.83234 19.6433 5.10452 19.6433C6.5451 19.6433 7.04239 20.1826 7.26736 20.5629C7.55942 21.0575 7.57784 21.6285 7.57784 21.814C7.57784 21.8087 7.57784 21.814 7.5739 21.8271C7.55679 21.9113 7.47786 22.3008 7.18185 22.6797C6.89505 23.0454 6.33329 23.498 5.10452 23.498C3.97047 23.498 3.39687 23.0046 3.0614 22.5349C2.85079 22.2359 2.69735 21.9005 2.60883 21.5456V21.5443C2.54063 21.2063 2.34247 20.9086 2.05699 20.7153C1.77151 20.5219 1.42154 20.4484 1.08238 20.5104C0.743222 20.5725 0.441985 20.7652 0.243495 21.0472C0.0450051 21.3291 -0.0348731 21.6777 0.0210496 22.0179V22.0232L0.0223651 22.0311L0.0263119 22.0482C0.0382371 22.1132 0.0527199 22.1777 0.0697266 22.2416C0.240847 22.8958 0.529248 23.5137 0.920918 24.065C1.63927 25.0824 2.72373 25.7821 3.94679 26.0173V27.6276C3.94679 27.9765 4.0854 28.3112 4.33212 28.5579C4.57885 28.8046 4.91347 28.9432 5.26239 28.9432C5.61131 28.9432 5.94594 28.8046 6.19266 28.5579C6.43938 28.3112 6.57799 27.9765 6.57799 27.6276V25.966C7.79755 25.6805 8.66979 25.0451 9.2526 24.3018C9.9867 23.3651 10.209 22.3244 10.209 21.8127C10.209 21.5246 10.2011 20.3524 9.53282 19.2223C8.79609 17.979 7.40155 17.0107 5.10452 17.0107C3.56527 17.0107 3.07981 16.5121 2.89958 16.2451C2.65488 15.882 2.6312 15.4412 2.6312 15.1689C2.6312 14.8834 2.65093 14.3848 2.9101 13.9717C3.09955 13.6691 3.57579 13.156 5.07821 13.156C6.45958 13.156 6.99109 13.7244 7.25157 14.1691C7.43451 14.4891 7.54583 14.8451 7.57784 15.2123C7.58779 15.5612 7.73593 15.8919 7.98968 16.1316C8.24344 16.3713 8.58202 16.5004 8.93093 16.4904C9.27985 16.4805 9.61053 16.3323 9.85022 16.0786C10.0899 15.8248 10.219 15.4862 10.209 15.1373V15.1242L10.2077 15.1044C10.2053 15.0328 10.2 14.9612 10.1919 14.89C10.1155 14.1674 9.88776 13.4691 9.52361 12.8403C8.97632 11.9062 8.04225 11.0458 6.57799 10.6932V9.20925C6.57799 8.86033 6.43938 8.5257 6.19266 8.27898C5.94594 8.03226 5.61131 7.89365 5.26239 7.89365ZM28.8932 11.6918C28.8151 11.5357 28.7067 11.3968 28.5744 11.283C28.442 11.1692 28.2884 11.0829 28.1224 11.0291C27.9564 10.9752 27.7813 10.955 27.6074 10.9695C27.4335 10.984 27.2642 11.0329 27.1094 11.1134C26.9546 11.194 26.8174 11.3045 26.7057 11.4386C26.594 11.5727 26.5101 11.7277 26.4589 11.8946C26.4077 12.0614 26.3902 12.2367 26.4075 12.4104C26.4247 12.5841 26.4763 12.7526 26.5593 12.9061L30.1127 19.734H27.6276C27.2786 19.734 26.944 19.8726 26.6973 20.1194C26.4506 20.3661 26.312 20.7007 26.312 21.0496C26.312 21.3985 26.4506 21.7332 26.6973 21.9799C26.944 22.2266 27.2786 22.3652 27.6276 22.3652H30.2587V23.6808H27.6276C27.2786 23.6808 26.944 23.8194 26.6973 24.0662C26.4506 24.3129 26.312 24.6475 26.312 24.9964C26.312 25.3453 26.4506 25.68 26.6973 25.9267C26.944 26.1734 27.2786 26.312 27.6276 26.312H30.2587V27.6276C30.2587 27.9765 30.3974 28.3112 30.6441 28.5579C30.8908 28.8046 31.2254 28.9432 31.5743 28.9432C31.9233 28.9432 32.2579 28.8046 32.5046 28.5579C32.7513 28.3112 32.8899 27.9765 32.8899 27.6276V26.312H35.5211C35.8701 26.312 36.2047 26.1734 36.4514 25.9267C36.6981 25.68 36.8367 25.3453 36.8367 24.9964C36.8367 24.6475 36.6981 24.3129 36.4514 24.0662C36.2047 23.8194 35.8701 23.6808 35.5211 23.6808H32.8899V22.3652H35.5211C35.8701 22.3652 36.2047 22.2266 36.4514 21.9799C36.6981 21.7332 36.8367 21.3985 36.8367 21.0496C36.8367 20.7007 36.6981 20.3661 36.4514 20.1194C36.2047 19.8726 35.8701 19.734 35.5211 19.734H33.0347L36.5894 12.9061C36.7439 12.5973 36.7709 12.2401 36.6643 11.9116C36.5578 11.5831 36.3265 11.3096 36.0201 11.1503C35.7138 10.9909 35.357 10.9583 35.0269 11.0596C34.6968 11.1609 34.4197 11.388 34.2555 11.6918L31.5743 16.8423L28.8932 11.6918Z" fill="black"/>
<path d="M9.973 0.768375L9.44676 7.43845C9.42045 7.76735 9.68357 8.05679 10.0125 8.05679L16.7089 8.01732C17.2219 8.00416 17.4851 7.41214 17.143 7.04378L15.5774 5.35981C15.5402 5.3232 15.5111 5.27914 15.4921 5.23052C15.4731 5.1819 15.4645 5.1298 15.467 5.07765C15.4695 5.02549 15.483 4.97445 15.5065 4.92786C15.5301 4.88126 15.5632 4.84017 15.6038 4.80726C16.5247 4.08368 17.7219 3.64953 18.9848 3.70216C21.3529 3.79425 23.2868 5.62293 23.7736 7.83313C23.7999 7.95154 23.9052 8.04363 24.0367 8.04363H27.2336C27.4047 8.04363 27.5362 7.88576 27.5099 7.72789C26.9311 3.5706 23.4579 0.1632 19.1164 0.00532793C16.8141 -0.0736079 14.6697 0.728907 13.0515 2.12344C12.8936 2.255 12.67 2.24184 12.5253 2.09713L10.9729 0.426319C10.8969 0.344031 10.7987 0.28559 10.6902 0.25811C10.5816 0.23063 10.4674 0.235296 10.3615 0.27154C10.2555 0.307784 10.1624 0.374043 10.0934 0.462252C10.0245 0.550461 9.98262 0.656817 9.973 0.768375ZM26.7495 36.2316L27.2757 29.5615C27.2807 29.4835 27.2699 29.4052 27.2439 29.3314C27.2179 29.2575 27.1773 29.1897 27.1245 29.132C27.0716 29.0743 27.0077 29.0278 26.9365 28.9954C26.8653 28.9629 26.7883 28.9452 26.71 28.9432L20.0136 28.9827C19.5006 28.9958 19.2374 29.5879 19.5795 29.9562L21.1451 31.6402C21.3029 31.7981 21.2898 32.0612 21.1187 32.1927C20.1978 32.9163 19.0006 33.3505 17.7377 33.2978C15.3696 33.2057 13.4357 31.3771 12.9489 29.1669C12.9357 29.107 12.9023 29.0535 12.8545 29.0152C12.8066 28.9769 12.7471 28.9561 12.6858 28.9564H9.48886C9.33099 28.9564 9.18627 29.1011 9.21258 29.2721C9.79145 33.4294 13.2646 36.8368 17.6061 36.9947C19.9084 37.0736 22.0528 36.2711 23.671 34.8766C23.8289 34.745 24.0525 34.7582 24.1972 34.9029L25.7496 36.5737C26.0917 36.942 26.71 36.7316 26.7495 36.2316Z" fill="#02A6EB"/>
</svg>
