<svg width="39" height="38" viewBox="0 0 39 38" fill="none" xmlns="http://www.w3.org/2000/svg">
<path d="M29.8963 35.5325L30.2289 35.5687L30.0765 36.0467L29.8963 35.5325ZM21.1105 3.49178L20.716 4.27283L20.2437 5.20786L21.0817 5.83638L26.2939 9.7455L27.7671 10.8504L28.2501 9.07337L29.3531 5.0157L31.0643 10.4255L31.1375 10.6568L31.2918 10.8439L36.3736 17.0051L36.7942 21.5304L32.1181 30.6871L26.6097 29.7741L24.2771 24.5249L23.4246 22.6064L22.1442 24.2702L21.1123 25.6112L16.0336 22.055L15.3845 21.6005L14.6964 21.9936L5.96229 26.9846L4.06738 26.6668L1.61262 15.6128L7.5865 12.1157L7.79174 11.9956L7.93853 11.8084L12.6688 5.77792L14.5879 7.15493L15.9842 8.1569L16.5073 6.51978L17.3593 3.85314L21.1105 3.49178Z" stroke="black" stroke-width="2.5"/>
</svg>
