<svg width="37" height="37" viewBox="0 0 37 37" fill="none" xmlns="http://www.w3.org/2000/svg">
<path d="M20.35 0.0924999V3.8295C27.6575 4.736 33.3 10.952 33.3 18.5C33.3 24.4385 29.748 29.6 24.568 31.968L20.35 27.75V37H29.6L27.343 34.743C33.1335 31.5795 37 25.456 37 18.5C37 8.917 29.6925 1.0175 20.35 0.0924999ZM16.65 0C13.0425 0.37 9.62 1.776 6.808 4.0885L9.435 6.7155C11.5349 5.09671 14.0227 4.05696 16.65 3.7V0ZM4.07 6.808C1.776 9.62 0.37 13.0425 0 16.65H3.7C4.0515 14.023 5.0875 11.5255 6.7155 9.435L4.07 6.808ZM7.4 11.1V14.8H12.95V16.65H11.1C9.065 16.65 7.4 18.315 7.4 20.35V25.9H16.65V22.2H11.1V20.35H12.95C15.0035 20.35 16.65 18.7035 16.65 16.65V14.8C16.65 13.8187 16.2602 12.8776 15.5663 12.1837C14.8724 11.4898 13.9313 11.1 12.95 11.1H7.4ZM18.5 11.1V20.35H24.05V25.9H27.75V20.35H29.6V16.65H27.75V11.1H24.05V16.65H22.2V11.1H18.5ZM0 20.35C0.37 23.9575 1.7945 27.38 4.107 30.192L6.734 27.565C5.10972 25.4664 4.06365 22.9788 3.7 20.35H0ZM9.4535 30.2845L6.808 32.9115C9.61885 35.2065 13.0404 36.6278 16.65 37V33.3C14.0261 32.9512 11.5423 31.9104 9.4535 30.2845Z" fill="black"/>
<path d="M16.65 0C13.0425 0.37 9.62 1.776 6.808 4.0885L9.435 6.7155C11.5349 5.09671 14.0227 4.05696 16.65 3.7V0ZM4.07 6.808C1.776 9.62 0.37 13.0425 0 16.65H3.7C4.0515 14.023 5.0875 11.5255 6.7155 9.435L4.07 6.808ZM0 20.35C0.37 23.9575 1.7945 27.38 4.107 30.192L6.734 27.565C5.10972 25.4664 4.06365 22.9788 3.7 20.35H0ZM9.4535 30.2845L6.808 32.9115C9.61885 35.2065 13.0404 36.6278 16.65 37V33.3C14.0261 32.9512 11.5423 31.9104 9.4535 30.2845Z" fill="#02A6EB"/>
</svg>
