<svg width="44" height="44" viewBox="0 0 44 44" fill="none" xmlns="http://www.w3.org/2000/svg">
<circle cx="22" cy="22" r="22" fill="black"/>
<path d="M29.23 25.26L26.69 24.97C26.3914 24.9349 26.0886 24.968 25.8046 25.0667C25.5206 25.1654 25.2626 25.3273 25.05 25.54L23.21 27.38C20.3712 25.9362 18.0638 23.6288 16.62 20.79L18.47 18.94C18.9 18.51 19.11 17.91 19.04 17.3L18.75 14.78C18.6933 14.2922 18.4592 13.8422 18.0923 13.5159C17.7253 13.1895 17.2511 13.0094 16.76 13.01H15.03C13.9 13.01 12.96 13.95 13.03 15.08C13.56 23.62 20.39 30.44 28.92 30.97C30.05 31.04 30.99 30.1 30.99 28.97V27.24C31 26.23 30.24 25.38 29.23 25.26V25.26Z" fill="white"/>
</svg>
